<svg width="816" height="208" viewBox="0 0 816 208" fill="none" xmlns="http://www.w3.org/2000/svg">
<path d="M321.35 51.7801C324.2 53.2101 325.87 55.4601 326.37 58.5301C326.86 61.6001 326.07 64.4001 323.98 66.9201C322.55 68.8901 320.71 69.9901 318.47 70.2101C316.22 70.4301 313.95 69.9901 311.64 68.8901C309.01 67.6801 306.24 66.7501 303.33 66.0901C300.42 65.4301 297.38 65.1001 294.2 65.1001C288.28 65.1001 282.98 66.0301 278.32 67.9001C273.66 69.7701 269.68 72.4201 266.39 75.8801C263.1 79.3401 260.6 83.4201 258.9 88.1401C257.2 92.8601 256.35 98.0701 256.35 103.77C256.35 110.46 257.31 116.27 259.23 121.21C261.15 126.14 263.81 130.26 267.21 133.55C270.61 136.84 274.61 139.28 279.22 140.87C283.83 142.46 288.82 143.26 294.19 143.26C297.15 143.26 300.11 142.99 303.07 142.44C306.03 141.89 308.88 140.91 311.62 139.48C313.92 138.38 316.2 138 318.45 138.33C320.7 138.66 322.59 139.81 324.13 141.78C326.32 144.52 327.12 147.35 326.52 150.25C325.92 153.16 324.24 155.27 321.5 156.58C318.65 158.01 315.71 159.19 312.7 160.12C309.68 161.05 306.64 161.76 303.57 162.26C300.5 162.75 297.37 163 294.19 163C286.29 163 278.81 161.74 271.73 159.22C264.66 156.7 258.35 152.97 252.81 148.03C247.27 143.1 242.91 136.93 239.73 129.52C236.55 122.12 234.96 113.54 234.96 103.77C234.96 95.3301 236.41 87.5401 239.32 80.4101C242.23 73.2801 246.34 67.1101 251.66 61.9001C256.98 56.6901 263.26 52.6301 270.5 49.7301C277.74 46.8301 285.64 45.3701 294.19 45.3701C299.02 45.3701 303.73 45.9201 308.34 47.0201C312.95 48.1201 317.28 49.7101 321.34 51.7901L321.35 51.7801Z" fill="#197BDA"/>
<path d="M448.19 103.77C448.19 112 446.82 119.67 444.08 126.8C441.34 133.93 437.47 140.21 432.48 145.64C427.49 151.07 421.57 155.32 414.71 158.39C407.85 161.46 400.37 163 392.25 163C384.13 163 376.68 161.46 369.88 158.39C363.08 155.32 357.18 151.07 352.19 145.64C347.2 140.21 343.33 133.93 340.59 126.8C337.85 119.67 336.48 111.99 336.48 103.77C336.48 95.55 337.85 87.87 340.59 80.74C343.33 73.61 347.2 67.33 352.19 61.9C357.18 56.47 363.07 52.22 369.88 49.15C376.68 46.08 384.14 44.54 392.25 44.54C400.36 44.54 407.85 46.08 414.71 49.15C421.56 52.22 427.49 56.47 432.48 61.9C437.47 67.33 441.34 73.61 444.08 80.74C446.82 87.87 448.19 95.55 448.19 103.77ZM426.8 103.77C426.8 96.42 425.32 89.76 422.36 83.78C419.4 77.8 415.34 73.06 410.19 69.55C405.03 66.04 399.06 64.29 392.26 64.29C385.46 64.29 379.48 66.05 374.33 69.55C369.17 73.06 365.14 77.78 362.24 83.7C359.33 89.62 357.88 96.31 357.88 103.77C357.88 111.23 359.33 117.78 362.24 123.76C365.14 129.74 369.18 134.48 374.33 137.99C379.48 141.5 385.46 143.26 392.26 143.26C399.06 143.26 405.04 141.51 410.19 137.99C415.34 134.48 419.4 129.74 422.36 123.76C425.32 117.78 426.8 111.12 426.8 103.77Z" fill="#197BDA"/>
<path d="M510.7 163C503.02 163 496.11 162.04 489.97 160.12C483.83 158.2 477.96 154.83 472.37 150C470.94 148.79 469.85 147.42 469.08 145.89C468.31 144.36 467.93 142.82 467.93 141.28C467.93 138.76 468.83 136.54 470.64 134.62C472.45 132.7 474.72 131.74 477.47 131.74C479.55 131.74 481.42 132.4 483.06 133.71C487.23 137.11 491.37 139.69 495.48 141.44C499.59 143.2 504.66 144.07 510.7 144.07C514.76 144.07 518.49 143.44 521.89 142.18C525.29 140.92 528.03 139.22 530.12 137.08C532.2 134.94 533.25 132.5 533.25 129.76C533.25 126.47 532.26 123.67 530.29 121.37C528.32 119.07 525.3 117.12 521.24 115.53C517.18 113.94 512.03 112.71 505.78 111.83C499.86 110.95 494.65 109.61 490.15 107.8C485.65 105.99 481.9 103.69 478.88 100.89C475.86 98.09 473.59 94.8 472.05 91.02C470.51 87.24 469.75 82.99 469.75 78.27C469.75 71.14 471.59 65.05 475.26 60.01C478.93 54.97 483.9 51.13 490.15 48.49C496.4 45.86 503.31 44.54 510.88 44.54C518.01 44.54 524.62 45.61 530.7 47.75C536.79 49.89 541.75 52.6 545.59 55.89C548.77 58.41 550.36 61.32 550.36 64.61C550.36 67.02 549.43 69.22 547.56 71.19C545.69 73.16 543.5 74.15 540.98 74.15C539.34 74.15 537.85 73.66 536.54 72.67C534.78 71.14 532.43 69.68 529.47 68.31C526.51 66.94 523.38 65.79 520.09 64.86C516.8 63.93 513.73 63.46 510.88 63.46C506.16 63.46 502.19 64.06 498.95 65.27C495.71 66.48 493.27 68.12 491.63 70.21C489.98 72.29 489.16 74.71 489.16 77.45C489.16 80.74 490.12 83.46 492.04 85.59C493.96 87.73 496.73 89.43 500.35 90.69C503.97 91.95 508.3 93.07 513.35 94.06C519.93 95.27 525.71 96.69 530.71 98.34C535.7 99.98 539.84 102.1 543.13 104.67C546.42 107.25 548.89 110.48 550.53 114.38C552.18 118.27 553 123.02 553 128.61C553 135.74 551.03 141.88 547.08 147.04C543.13 152.2 537.95 156.14 531.53 158.89C525.11 161.63 518.18 163 510.72 163H510.7Z" fill="#197BDA"/>
<path d="M588.85 46.02C590.38 46.02 592 46.43 593.7 47.25C595.4 48.07 596.69 49.14 597.57 50.46L637.55 111.99L629.32 111.66L670.29 50.46C672.37 47.5 675.06 46.02 678.35 46.02C680.98 46.02 683.34 46.95 685.43 48.82C687.51 50.69 688.55 53.1 688.55 56.06V151.32C688.55 154.17 687.62 156.56 685.75 158.48C683.88 160.4 681.42 161.36 678.35 161.36C675.28 161.36 672.78 160.4 670.86 158.48C668.94 156.56 667.98 154.18 667.98 151.32V73.83L674.4 75.31L640.84 126.48C639.85 127.69 638.62 128.73 637.14 129.61C635.66 130.49 634.15 130.87 632.62 130.76C631.19 130.87 629.74 130.49 628.26 129.61C626.78 128.73 625.55 127.69 624.56 126.48L593.14 76.8L597.42 68.08V151.33C597.42 154.18 596.54 156.57 594.79 158.49C593.03 160.41 590.73 161.37 587.88 161.37C585.03 161.37 582.89 160.41 581.13 158.49C579.37 156.57 578.5 154.19 578.5 151.33V56.06C578.5 53.32 579.51 50.96 581.54 48.99C583.57 47.02 586.01 46.03 588.86 46.03L588.85 46.02Z" fill="#197BDA"/>
<path d="M815.06 103.77C815.06 112 813.69 119.67 810.95 126.8C808.21 133.93 804.34 140.21 799.35 145.64C794.36 151.07 788.44 155.32 781.58 158.39C774.72 161.46 767.24 163 759.12 163C751 163 743.54 161.46 736.74 158.39C729.94 155.32 724.04 151.07 719.05 145.64C714.06 140.21 710.19 133.93 707.45 126.8C704.71 119.67 703.34 111.99 703.34 103.77C703.34 95.55 704.71 87.87 707.45 80.74C710.19 73.61 714.06 67.33 719.05 61.9C724.04 56.47 729.93 52.22 736.74 49.15C743.54 46.08 751 44.54 759.12 44.54C767.24 44.54 774.72 46.08 781.58 49.15C788.43 52.22 794.36 56.47 799.35 61.9C804.34 67.33 808.21 73.61 810.95 80.74C813.69 87.87 815.06 95.55 815.06 103.77ZM793.67 103.77C793.67 96.42 792.19 89.76 789.23 83.78C786.27 77.8 782.21 73.06 777.06 69.55C771.9 66.04 765.93 64.29 759.13 64.29C752.33 64.29 746.35 66.05 741.2 69.55C736.04 73.06 732.01 77.78 729.11 83.7C726.2 89.62 724.75 96.31 724.75 103.77C724.75 111.23 726.2 117.78 729.11 123.76C732.01 129.74 736.05 134.48 741.2 137.99C746.35 141.5 752.33 143.26 759.13 143.26C765.93 143.26 771.91 141.51 777.06 137.99C782.21 134.48 786.27 129.74 789.23 123.76C792.19 117.78 793.67 111.12 793.67 103.77Z" fill="#197BDA"/>
<path d="M178.57 168.26C175.58 164.86 170.43 164.44 167.03 167.43C151.33 181.05 131.24 188.61 110.47 188.61C87.6299 188.61 66.0399 179.64 49.6799 163.28C33.3199 146.92 24.3499 125.33 24.3499 102.49C24.3499 79.65 33.3199 58.06 49.6799 41.7C66.0399 25.34 87.6299 16.37 110.47 16.37C131.15 16.37 151.16 23.84 166.86 37.38C170.26 40.29 175.41 39.95 178.4 36.55C181.31 33.15 180.97 28 177.57 25.01C158.88 8.89 135.13 0 110.47 0C83.3099 0 57.5699 10.71 38.1299 30.15C18.6999 49.58 7.9799 75.24 7.9799 102.48C7.9799 126.38 16.2299 149.07 31.3899 167.4L2.6699 193.25C-0.650104 196.32 -0.900104 201.47 2.0899 204.79C3.6699 206.62 5.9099 207.53 8.1499 207.53C10.0599 207.53 11.9699 206.87 13.6299 205.37L42.7599 179.16C61.5499 195.83 85.3399 204.96 110.47 204.96C135.6 204.96 159.14 195.99 177.74 179.8C181.15 176.81 181.56 171.66 178.57 168.26Z" fill="url(#paint0_linear_1723_30457)"/>
<path d="M109.44 121.03C107.85 122.48 105.84 123.21 103.83 123.21C101.7 123.21 99.5699 122.4 97.9599 120.78L72.2999 95.1199C69.0599 91.8799 69.0599 86.6199 72.2999 83.3699C75.5399 80.1299 80.7999 80.1299 84.0499 83.3699L104.1 103.42L159.67 52.5699C147.02 40.0999 129.65 32.3999 110.48 32.3999C71.7699 32.3999 40.3899 63.7799 40.3899 102.49C40.3899 141.2 71.7699 172.58 110.48 172.58C149.19 172.58 180.57 141.2 180.57 102.49C180.57 88.9399 176.71 76.2899 170.06 65.5699L109.45 121.03H109.44Z" fill="url(#paint1_linear_1723_30457)"/>
<defs>
<linearGradient id="paint0_linear_1723_30457" x1="-0.000103414" y1="103.77" x2="180.57" y2="103.77" gradientUnits="userSpaceOnUse">
<stop stop-color="#0C2C84"/>
<stop offset="1" stop-color="#197BDA"/>
</linearGradient>
<linearGradient id="paint1_linear_1723_30457" x1="40.3799" y1="102.48" x2="180.57" y2="102.48" gradientUnits="userSpaceOnUse">
<stop stop-color="#0C2C84"/>
<stop offset="1" stop-color="#197BDA"/>
</linearGradient>
</defs>
</svg>
