<svg width="846" height="884" viewBox="0 0 846 884" fill="none" xmlns="http://www.w3.org/2000/svg">
<path d="M125.93 430.03C130.09 432.11 132.53 435.39 133.25 439.86C133.97 444.34 132.81 448.42 129.77 452.09C127.69 454.97 125.01 456.57 121.73 456.89C118.45 457.21 115.13 456.57 111.78 454.97C107.94 453.21 103.9 451.85 99.67 450.89C95.43 449.93 90.99 449.45 86.36 449.45C77.72 449.45 70.01 450.81 63.21 453.53C56.41 456.25 50.62 460.13 45.82 465.16C41.02 470.2 37.38 476.16 34.91 483.03C32.43 489.91 31.19 497.5 31.19 505.82C31.19 515.58 32.59 524.05 35.39 531.25C38.19 538.45 42.07 544.44 47.02 549.24C51.97 554.04 57.81 557.6 64.53 559.91C71.25 562.23 78.52 563.39 86.36 563.39C90.68 563.39 95 562.99 99.31 562.19C103.63 561.39 107.78 559.95 111.78 557.87C115.14 556.27 118.46 555.71 121.73 556.19C125 556.67 127.76 558.35 130.01 561.23C133.21 565.23 134.36 569.35 133.49 573.58C132.61 577.82 130.17 580.9 126.17 582.82C122.01 584.9 117.73 586.62 113.34 587.98C108.94 589.34 104.5 590.38 100.03 591.1C95.55 591.82 90.99 592.18 86.36 592.18C74.85 592.18 63.93 590.34 53.62 586.66C43.31 582.98 34.11 577.54 26.03 570.35C17.95 563.15 11.6 554.16 6.96 543.36C2.32 532.57 0 520.05 0 505.82C0 493.51 2.12 482.15 6.36 471.76C10.6 461.37 16.59 452.37 24.35 444.77C32.1 437.18 41.26 431.26 51.82 427.02C62.37 422.79 73.89 420.66 86.36 420.66C93.4 420.66 100.27 421.46 106.99 423.06C113.71 424.66 120.02 426.98 125.94 430.02L125.93 430.03Z" fill="white"/>
<path d="M310.88 505.83C310.88 517.82 308.88 529.02 304.88 539.41C300.88 549.81 295.24 558.96 287.97 566.88C280.69 574.79 272.06 580.99 262.06 585.47C252.06 589.95 241.15 592.19 229.32 592.19C217.49 592.19 206.61 589.95 196.7 585.47C186.78 581 178.19 574.8 170.91 566.88C163.63 558.96 157.99 549.81 154 539.41C150 529.02 148 517.82 148 505.83C148 493.84 150 482.64 154 472.25C158 461.86 163.63 452.7 170.91 444.78C178.18 436.86 186.78 430.67 196.7 426.19C206.61 421.71 217.49 419.47 229.32 419.47C241.15 419.47 252.07 421.71 262.06 426.19C272.05 430.67 280.69 436.86 287.97 444.78C295.24 452.7 300.88 461.85 304.88 472.25C308.88 482.65 310.88 493.84 310.88 505.83ZM279.7 505.83C279.7 495.12 277.54 485.4 273.22 476.69C268.9 467.98 262.98 461.06 255.47 455.94C247.95 450.82 239.24 448.26 229.32 448.26C219.4 448.26 210.69 450.82 203.17 455.94C195.65 461.06 189.77 467.93 185.54 476.57C181.3 485.21 179.18 494.96 179.18 505.83C179.18 516.7 181.3 526.26 185.54 534.98C189.77 543.7 195.65 550.61 203.17 555.73C210.68 560.85 219.4 563.41 229.32 563.41C239.24 563.41 247.95 560.85 255.47 555.73C262.98 550.62 268.9 543.7 273.22 534.98C277.54 526.27 279.7 516.55 279.7 505.83V505.83Z" fill="white"/>
<path d="M402.03 592.19C390.83 592.19 380.76 590.79 371.81 587.99C362.85 585.19 354.3 580.28 346.14 573.24C344.06 571.48 342.46 569.48 341.34 567.24C340.22 565 339.66 562.77 339.66 560.52C339.66 556.84 340.98 553.6 343.62 550.8C346.26 548.01 349.58 546.6 353.57 546.6C356.61 546.6 359.33 547.56 361.73 549.48C367.8 554.44 373.84 558.2 379.84 560.75C385.84 563.31 393.23 564.59 402.03 564.59C407.94 564.59 413.38 563.67 418.34 561.83C423.3 559.99 427.29 557.51 430.33 554.39C433.37 551.27 434.89 547.71 434.89 543.72C434.89 538.92 433.45 534.84 430.57 531.49C427.69 528.13 423.29 525.29 417.38 522.97C411.46 520.65 403.95 518.85 394.83 517.57C386.19 516.29 378.6 514.33 372.04 511.69C365.48 509.05 360 505.69 355.61 501.62C351.21 497.54 347.89 492.74 345.66 487.23C343.42 481.71 342.3 475.52 342.3 468.64C342.3 458.25 344.98 449.37 350.34 442.01C355.7 434.66 362.93 429.06 372.05 425.22C381.16 421.38 391.24 419.46 402.27 419.46C412.66 419.46 422.3 421.02 431.17 424.14C440.05 427.26 447.28 431.22 452.88 436.01C457.52 439.69 459.84 443.93 459.84 448.72C459.84 452.24 458.48 455.44 455.76 458.31C453.04 461.19 449.84 462.63 446.16 462.63C443.76 462.63 441.6 461.91 439.68 460.47C437.12 458.23 433.68 456.12 429.37 454.11C425.05 452.11 420.49 450.43 415.7 449.07C410.9 447.71 406.42 447.03 402.27 447.03C395.39 447.03 389.59 447.91 384.88 449.67C380.16 451.43 376.6 453.83 374.21 456.87C371.81 459.91 370.61 463.43 370.61 467.42C370.61 472.22 372.01 476.18 374.81 479.29C377.61 482.41 381.65 484.89 386.92 486.73C392.2 488.57 398.51 490.21 405.87 491.65C415.47 493.41 423.9 495.49 431.18 497.89C438.46 500.29 444.49 503.37 449.29 507.13C454.09 510.89 457.69 515.61 460.08 521.28C462.48 526.96 463.68 533.87 463.68 542.03C463.68 552.43 460.8 561.38 455.04 568.9C449.28 576.42 441.73 582.17 432.37 586.17C423.01 590.17 412.9 592.17 402.03 592.17V592.19Z" fill="white"/>
<path d="M515.96 421.63C518.2 421.63 520.56 422.23 523.04 423.43C525.52 424.63 527.39 426.19 528.68 428.11L586.97 517.82L574.98 517.34L634.71 428.11C637.75 423.79 641.67 421.63 646.46 421.63C650.3 421.63 653.74 422.99 656.78 425.71C659.81 428.43 661.34 431.95 661.34 436.27V575.16C661.34 579.32 659.98 582.8 657.26 585.59C654.54 588.39 650.94 589.79 646.46 589.79C641.98 589.79 638.34 588.39 635.55 585.59C632.75 582.8 631.35 579.32 631.35 575.16V462.18L640.71 464.34L591.78 538.94C590.34 540.7 588.54 542.22 586.38 543.5C584.22 544.78 582.02 545.34 579.78 545.18C577.7 545.34 575.58 544.78 573.42 543.5C571.26 542.22 569.46 540.7 568.02 538.94L522.2 466.5L528.44 453.79V575.17C528.44 579.33 527.16 582.81 524.6 585.6C522.04 588.4 518.68 589.8 514.53 589.8C510.38 589.8 507.25 588.4 504.7 585.6C502.14 582.81 500.86 579.33 500.86 575.17V436.28C500.86 432.28 502.34 428.84 505.3 425.96C508.26 423.08 511.81 421.64 515.97 421.64L515.96 421.63Z" fill="white"/>
<path d="M845.79 505.83C845.79 517.82 843.79 529.02 839.79 539.41C835.79 549.81 830.15 558.96 822.88 566.88C815.6 574.79 806.97 580.99 796.97 585.47C786.97 589.95 776.06 592.19 764.23 592.19C752.4 592.19 741.52 589.95 731.61 585.47C721.69 581 713.1 574.8 705.82 566.88C698.54 558.96 692.9 549.81 688.91 539.41C684.91 529.02 682.91 517.82 682.91 505.83C682.91 493.84 684.91 482.64 688.91 472.25C692.91 461.86 698.54 452.7 705.82 444.78C713.09 436.86 721.69 430.67 731.61 426.19C741.52 421.71 752.4 419.47 764.23 419.47C776.06 419.47 786.98 421.71 796.97 426.19C806.96 430.67 815.6 436.86 822.88 444.78C830.15 452.7 835.79 461.85 839.79 472.25C843.79 482.65 845.79 493.84 845.79 505.83ZM814.61 505.83C814.61 495.12 812.45 485.4 808.13 476.69C803.81 467.98 797.89 461.06 790.38 455.94C782.86 450.82 774.15 448.26 764.23 448.26C754.31 448.26 745.6 450.82 738.08 455.94C730.56 461.06 724.68 467.93 720.45 476.57C716.21 485.21 714.09 494.96 714.09 505.83C714.09 516.7 716.21 526.26 720.45 534.98C724.68 543.7 730.56 550.61 738.08 555.73C745.59 560.85 754.31 563.41 764.23 563.41C774.15 563.41 782.86 560.85 790.38 555.73C797.89 550.62 803.81 543.7 808.13 534.98C812.45 526.27 814.61 516.55 814.61 505.83V505.83Z" fill="white"/>
<path d="M23.48 629.59C24.2 629.95 24.62 630.52 24.75 631.29C24.87 632.07 24.67 632.77 24.15 633.41C23.79 633.91 23.32 634.19 22.76 634.24C22.19 634.3 21.62 634.19 21.04 633.91C20.38 633.61 19.68 633.37 18.94 633.2C18.2 633.03 17.44 632.95 16.63 632.95C15.13 632.95 13.8 633.19 12.62 633.66C11.44 634.13 10.44 634.8 9.61 635.68C8.78 636.56 8.15 637.58 7.72 638.78C7.29 639.97 7.08 641.29 7.08 642.73C7.08 644.42 7.32 645.89 7.81 647.13C8.29 648.38 8.97 649.42 9.83 650.25C10.69 651.08 11.7 651.7 12.86 652.1C14.02 652.5 15.28 652.7 16.64 652.7C17.39 652.7 18.14 652.63 18.88 652.49C19.63 652.35 20.35 652.1 21.04 651.74C21.62 651.46 22.2 651.37 22.76 651.45C23.33 651.53 23.81 651.82 24.19 652.32C24.74 653.01 24.94 653.73 24.79 654.46C24.64 655.19 24.21 655.73 23.52 656.06C22.8 656.42 22.06 656.72 21.3 656.95C20.54 657.19 19.77 657.37 18.99 657.49C18.21 657.61 17.42 657.68 16.62 657.68C14.63 657.68 12.74 657.36 10.95 656.72C9.16 656.08 7.57 655.14 6.17 653.89C4.77 652.64 3.67 651.09 2.87 649.22C2.07 647.35 1.66 645.18 1.66 642.72C1.66 640.59 2.03 638.62 2.76 636.82C3.49 635.02 4.53 633.46 5.88 632.15C7.23 630.84 8.81 629.81 10.64 629.08C12.47 628.35 14.46 627.98 16.62 627.98C17.84 627.98 19.03 628.12 20.19 628.4C21.35 628.68 22.45 629.08 23.47 629.6L23.48 629.59Z" fill="white"/>
<path d="M60.5 642.72C60.5 644.8 60.15 646.74 59.46 648.54C58.77 650.34 57.79 651.93 56.53 653.3C55.27 654.67 53.77 655.74 52.04 656.52C50.31 657.3 48.42 657.68 46.37 657.68C44.32 657.68 42.44 657.29 40.72 656.52C39 655.75 37.51 654.67 36.25 653.3C34.99 651.93 34.01 650.34 33.32 648.54C32.63 646.74 32.28 644.8 32.28 642.72C32.28 640.64 32.63 638.7 33.32 636.9C34.01 635.1 34.99 633.51 36.25 632.14C37.51 630.77 39 629.7 40.72 628.92C42.44 628.15 44.32 627.76 46.37 627.76C48.42 627.76 50.31 628.15 52.04 628.92C53.77 629.7 55.27 630.77 56.53 632.14C57.79 633.51 58.77 635.1 59.46 636.9C60.15 638.7 60.5 640.64 60.5 642.72ZM55.1 642.72C55.1 640.86 54.73 639.18 53.98 637.67C53.23 636.16 52.21 634.96 50.91 634.08C49.61 633.19 48.1 632.75 46.38 632.75C44.66 632.75 43.15 633.19 41.85 634.08C40.55 634.97 39.53 636.16 38.8 637.65C38.06 639.15 37.7 640.84 37.7 642.72C37.7 644.6 38.07 646.26 38.8 647.77C39.53 649.28 40.55 650.48 41.85 651.36C43.15 652.25 44.66 652.69 46.38 652.69C48.1 652.69 49.61 652.25 50.91 651.36C52.21 650.47 53.24 649.28 53.98 647.77C54.73 646.26 55.1 644.58 55.1 642.72V642.72Z" fill="white"/>
<path d="M72.47 628.14C72.86 628.14 73.27 628.24 73.7 628.45C74.13 628.66 74.45 628.93 74.68 629.26L84.78 644.8L82.7 644.72L93.05 629.26C93.58 628.51 94.26 628.14 95.09 628.14C95.75 628.14 96.35 628.38 96.88 628.85C97.41 629.32 97.67 629.93 97.67 630.68V654.74C97.67 655.46 97.43 656.06 96.96 656.55C96.49 657.04 95.87 657.28 95.09 657.28C94.31 657.28 93.68 657.04 93.2 656.55C92.71 656.06 92.47 655.46 92.47 654.74V635.17L94.09 635.54L85.61 648.46C85.36 648.77 85.05 649.03 84.68 649.25C84.31 649.47 83.92 649.57 83.54 649.54C83.18 649.57 82.81 649.47 82.44 649.25C82.07 649.03 81.75 648.77 81.5 648.46L73.56 635.91L74.64 633.71V654.74C74.64 655.46 74.42 656.06 73.98 656.55C73.54 657.04 72.95 657.28 72.23 657.28C71.51 657.28 70.97 657.04 70.53 656.55C70.09 656.06 69.87 655.46 69.87 654.74V630.68C69.87 629.99 70.13 629.39 70.64 628.89C71.15 628.39 71.77 628.14 72.49 628.14H72.47Z" fill="white"/>
<path d="M120.46 628.18C121.9 628.18 123.25 628.6 124.51 629.43C125.77 630.26 126.79 631.38 127.56 632.8C128.33 634.22 128.72 635.79 128.72 637.54C128.72 639.29 128.33 640.82 127.56 642.24C126.79 643.66 125.77 644.78 124.51 645.63C123.25 646.48 121.9 646.9 120.46 646.9H112.81L113.23 646.15V654.75C113.23 655.47 113.01 656.07 112.57 656.56C112.13 657.05 111.54 657.29 110.82 657.29C110.1 657.29 109.56 657.05 109.12 656.56C108.68 656.07 108.46 655.47 108.46 654.75V630.73C108.46 630.01 108.7 629.41 109.19 628.92C109.67 628.43 110.28 628.19 111 628.19H120.47L120.46 628.18ZM120.46 642.14C120.99 642.14 121.5 641.92 122 641.47C122.5 641.03 122.91 640.45 123.25 639.75C123.58 639.04 123.75 638.3 123.75 637.53C123.75 636.76 123.58 635.98 123.25 635.29C122.92 634.6 122.5 634.04 122 633.61C121.5 633.18 120.99 632.97 120.46 632.97H112.73L113.23 632.22V642.81L112.77 642.15H120.46V642.14Z" fill="white"/>
<path d="M154.12 652.4C154.84 652.4 155.44 652.63 155.93 653.09C156.41 653.55 156.66 654.14 156.66 654.86C156.66 655.58 156.42 656.13 155.93 656.58C155.44 657.04 154.84 657.27 154.12 657.27H140.62C139.9 657.27 139.3 657.03 138.81 656.54C138.32 656.05 138.08 655.45 138.08 654.73V630.71C138.08 629.99 138.33 629.39 138.83 628.9C139.33 628.41 139.97 628.17 140.74 628.17C141.4 628.17 141.99 628.41 142.51 628.9C143.02 629.39 143.28 629.99 143.28 630.71V653.11L142.37 652.4H154.13H154.12Z" fill="white"/>
<path d="M171.2 654.73C171.2 655.45 170.94 656.05 170.41 656.54C169.88 657.03 169.27 657.27 168.58 657.27C167.8 657.27 167.18 657.03 166.71 656.54C166.24 656.05 166 655.45 166 654.73V630.71C166 629.99 166.25 629.39 166.75 628.9C167.25 628.41 167.89 628.17 168.66 628.17C169.32 628.17 169.91 628.41 170.43 628.9C170.94 629.39 171.2 629.99 171.2 630.71V654.73Z" fill="white"/>
<path d="M192.68 634.7L183.7 655.81C183.51 656.34 183.21 656.74 182.81 657.03C182.41 657.32 181.97 657.47 181.5 657.47C180.75 657.47 180.2 657.26 179.84 656.85C179.48 656.43 179.3 655.92 179.3 655.31C179.3 655.06 179.34 654.8 179.42 654.52L189.77 629.67C189.99 629.12 190.33 628.69 190.79 628.38C191.25 628.08 191.74 627.95 192.26 628.01C192.76 628.01 193.22 628.16 193.65 628.45C194.08 628.74 194.39 629.15 194.59 629.67L204.81 654.02C204.95 654.38 205.02 654.71 205.02 655.02C205.02 655.77 204.78 656.36 204.29 656.81C203.8 657.25 203.27 657.48 202.69 657.48C202.19 657.48 201.74 657.33 201.34 657.02C200.94 656.72 200.63 656.3 200.4 655.77L191.47 634.95L192.68 634.7V634.7ZM184.99 650.74L187.28 645.96H198.5L199.29 650.74H185H184.99Z" fill="white"/>
<path d="M235.19 628.18C235.85 628.18 236.4 628.4 236.81 628.85C237.23 629.29 237.43 629.85 237.43 630.51V654.74C237.43 655.46 237.19 656.06 236.7 656.55C236.22 657.04 235.61 657.28 234.89 657.28C234.53 657.28 234.16 657.22 233.79 657.09C233.42 656.96 233.13 656.79 232.94 656.57L216.61 635.84L217.69 635.17V654.95C217.69 655.62 217.48 656.17 217.05 656.61C216.62 657.05 216.06 657.27 215.37 657.27C214.68 657.27 214.17 657.05 213.75 656.61C213.33 656.17 213.13 655.61 213.13 654.95V630.73C213.13 630.01 213.37 629.41 213.86 628.92C214.34 628.43 214.95 628.19 215.67 628.19C216.06 628.19 216.46 628.27 216.87 628.42C217.29 628.57 217.59 628.8 217.78 629.11L233.61 649.31L232.9 649.81V630.53C232.9 629.87 233.11 629.31 233.52 628.87C233.94 628.43 234.49 628.2 235.18 628.2L235.19 628.18Z" fill="white"/>
<path d="M268.6 629.59C269.32 629.95 269.74 630.52 269.87 631.29C269.99 632.07 269.79 632.77 269.27 633.41C268.91 633.91 268.44 634.19 267.88 634.24C267.31 634.3 266.74 634.19 266.16 633.91C265.5 633.61 264.8 633.37 264.06 633.2C263.32 633.03 262.56 632.95 261.75 632.95C260.25 632.95 258.92 633.19 257.74 633.66C256.56 634.13 255.56 634.8 254.73 635.68C253.9 636.56 253.27 637.58 252.84 638.78C252.41 639.97 252.2 641.29 252.2 642.73C252.2 644.42 252.44 645.89 252.93 647.13C253.41 648.38 254.09 649.42 254.95 650.25C255.81 651.08 256.82 651.7 257.98 652.1C259.14 652.5 260.4 652.7 261.76 652.7C262.51 652.7 263.26 652.63 264 652.49C264.75 652.35 265.47 652.1 266.16 651.74C266.74 651.46 267.32 651.37 267.88 651.45C268.45 651.53 268.93 651.82 269.31 652.32C269.86 653.01 270.06 653.73 269.91 654.46C269.76 655.19 269.33 655.73 268.64 656.06C267.92 656.42 267.18 656.72 266.42 656.95C265.66 657.19 264.89 657.37 264.11 657.49C263.33 657.61 262.54 657.68 261.74 657.68C259.75 657.68 257.86 657.36 256.07 656.72C254.28 656.08 252.69 655.14 251.29 653.89C249.89 652.64 248.79 651.09 247.99 649.22C247.19 647.35 246.78 645.18 246.78 642.72C246.78 640.59 247.15 638.62 247.88 636.82C248.61 635.02 249.65 633.46 251 632.15C252.35 630.84 253.93 629.81 255.76 629.08C257.59 628.35 259.58 627.98 261.74 627.98C262.96 627.98 264.15 628.12 265.31 628.4C266.47 628.68 267.57 629.08 268.59 629.6L268.6 629.59Z" fill="white"/>
<path d="M281.39 628.18H295.31C296.03 628.18 296.63 628.41 297.12 628.87C297.6 629.33 297.85 629.92 297.85 630.64C297.85 631.36 297.61 631.89 297.12 632.32C296.63 632.75 296.03 632.96 295.31 632.96H283.68L284.05 632.25V640.35L283.72 640.02H293.44C294.16 640.02 294.76 640.25 295.25 640.71C295.73 641.17 295.98 641.76 295.98 642.48C295.98 643.2 295.74 643.73 295.25 644.16C294.76 644.59 294.16 644.81 293.44 644.81H283.84L284.05 644.48V652.87L283.72 652.5H295.31C296.03 652.5 296.63 652.74 297.12 653.23C297.6 653.71 297.85 654.28 297.85 654.91C297.85 655.6 297.61 656.17 297.12 656.61C296.63 657.05 296.03 657.27 295.31 657.27H281.39C280.67 657.27 280.07 657.03 279.58 656.54C279.09 656.05 278.85 655.45 278.85 654.73V630.71C278.85 629.99 279.09 629.39 279.58 628.9C280.06 628.41 280.67 628.17 281.39 628.17V628.18Z" fill="white"/>
<path d="M518.24 628.14C518.63 628.14 519.04 628.24 519.47 628.45C519.9 628.66 520.22 628.93 520.45 629.26L530.55 644.8L528.47 644.72L538.82 629.26C539.35 628.51 540.03 628.14 540.86 628.14C541.53 628.14 542.12 628.38 542.65 628.85C543.18 629.32 543.44 629.93 543.44 630.68V654.74C543.44 655.46 543.2 656.06 542.73 656.55C542.26 657.04 541.64 657.28 540.86 657.28C540.08 657.28 539.45 657.04 538.97 656.55C538.49 656.06 538.24 655.46 538.24 654.74V635.17L539.86 635.54L531.38 648.46C531.13 648.77 530.82 649.03 530.44 649.25C530.06 649.47 529.69 649.57 529.3 649.54C528.94 649.57 528.57 649.47 528.2 649.25C527.83 649.03 527.51 648.77 527.26 648.46L519.32 635.91L520.4 633.71V654.74C520.4 655.46 520.18 656.06 519.74 656.55C519.3 657.04 518.71 657.28 517.99 657.28C517.27 657.28 516.73 657.04 516.29 656.55C515.85 656.06 515.63 655.46 515.63 654.74V630.68C515.63 629.99 515.89 629.39 516.4 628.89C516.91 628.39 517.53 628.14 518.25 628.14H518.24Z" fill="white"/>
<path d="M584.01 642.72C584.01 644.8 583.66 646.74 582.97 648.54C582.28 650.34 581.3 651.93 580.04 653.3C578.78 654.67 577.28 655.74 575.55 656.52C573.82 657.3 571.93 657.68 569.88 657.68C567.83 657.68 565.95 657.29 564.23 656.52C562.51 655.75 561.02 654.67 559.76 653.3C558.5 651.93 557.52 650.34 556.83 648.54C556.14 646.74 555.79 644.8 555.79 642.72C555.79 640.64 556.13 638.7 556.83 636.9C557.52 635.1 558.5 633.51 559.76 632.14C561.02 630.77 562.51 629.7 564.23 628.92C565.95 628.15 567.83 627.76 569.88 627.76C571.93 627.76 573.82 628.15 575.55 628.92C577.28 629.7 578.78 630.77 580.04 632.14C581.3 633.51 582.28 635.1 582.97 636.9C583.66 638.7 584.01 640.64 584.01 642.72ZM578.61 642.72C578.61 640.86 578.24 639.18 577.49 637.67C576.74 636.16 575.72 634.96 574.42 634.08C573.12 633.19 571.61 632.75 569.89 632.75C568.17 632.75 566.66 633.19 565.36 634.08C564.06 634.97 563.04 636.16 562.31 637.65C561.57 639.15 561.21 640.84 561.21 642.72C561.21 644.6 561.58 646.26 562.31 647.77C563.04 649.28 564.06 650.48 565.36 651.36C566.66 652.25 568.17 652.69 569.89 652.69C571.61 652.69 573.12 652.25 574.42 651.36C575.72 650.47 576.75 649.28 577.49 647.77C578.24 646.26 578.61 644.58 578.61 642.72V642.72Z" fill="white"/>
<path d="M618.46 628.18C619.13 628.18 619.67 628.4 620.08 628.85C620.49 629.3 620.7 629.85 620.7 630.51V654.74C620.7 655.46 620.46 656.06 619.97 656.55C619.49 657.04 618.88 657.28 618.16 657.28C617.8 657.28 617.43 657.22 617.06 657.09C616.69 656.96 616.4 656.79 616.21 656.57L599.88 635.84L600.96 635.17V654.95C600.96 655.62 600.74 656.17 600.32 656.61C599.89 657.05 599.33 657.27 598.64 657.27C597.95 657.27 597.44 657.05 597.02 656.61C596.6 656.17 596.4 655.61 596.4 654.95V630.73C596.4 630.01 596.64 629.41 597.13 628.92C597.62 628.43 598.22 628.19 598.94 628.19C599.33 628.19 599.73 628.27 600.14 628.42C600.56 628.57 600.86 628.8 601.05 629.11L616.88 649.31L616.17 649.81V630.53C616.17 629.87 616.38 629.31 616.79 628.87C617.2 628.43 617.76 628.2 618.45 628.2L618.46 628.18Z" fill="white"/>
<path d="M639.74 654.73C639.74 655.45 639.48 656.05 638.95 656.54C638.42 657.03 637.81 657.27 637.12 657.27C636.34 657.27 635.72 657.03 635.25 656.54C634.78 656.05 634.54 655.45 634.54 654.73V630.71C634.54 629.99 634.79 629.39 635.29 628.9C635.79 628.41 636.43 628.17 637.2 628.17C637.86 628.17 638.45 628.41 638.97 628.9C639.49 629.39 639.74 629.99 639.74 630.71V654.73V654.73Z" fill="white"/>
<path d="M654.24 632.96C653.52 632.96 652.92 632.74 652.43 632.3C651.94 631.86 651.7 631.27 651.7 630.55C651.7 629.83 651.94 629.26 652.43 628.83C652.92 628.4 653.52 628.18 654.24 628.18H672.69C673.41 628.18 674.01 628.4 674.5 628.85C674.98 629.29 675.23 629.88 675.23 630.59C675.23 631.3 674.99 631.88 674.5 632.31C674.01 632.74 673.41 632.95 672.69 632.95H654.24V632.96ZM663.42 657.27C662.64 657.27 662.01 657.03 661.51 656.54C661.01 656.05 660.76 655.45 660.76 654.73V630.63H666.16V654.73C666.16 655.45 665.9 656.05 665.39 656.54C664.88 657.03 664.22 657.27 663.42 657.27Z" fill="white"/>
<path d="M713.12 642.72C713.12 644.8 712.77 646.74 712.08 648.54C711.39 650.34 710.41 651.93 709.15 653.3C707.89 654.67 706.39 655.74 704.66 656.52C702.93 657.3 701.04 657.68 698.99 657.68C696.94 657.68 695.06 657.29 693.34 656.52C691.62 655.75 690.13 654.67 688.87 653.3C687.61 651.93 686.63 650.34 685.94 648.54C685.25 646.74 684.9 644.8 684.9 642.72C684.9 640.64 685.24 638.7 685.94 636.9C686.63 635.1 687.61 633.51 688.87 632.14C690.13 630.77 691.62 629.7 693.34 628.92C695.06 628.15 696.94 627.76 698.99 627.76C701.04 627.76 702.93 628.15 704.66 628.92C706.39 629.7 707.89 630.77 709.15 632.14C710.41 633.51 711.39 635.1 712.08 636.9C712.77 638.7 713.12 640.64 713.12 642.72ZM707.72 642.72C707.72 640.86 707.35 639.18 706.6 637.67C705.85 636.16 704.83 634.96 703.53 634.08C702.23 633.19 700.72 632.75 699 632.75C697.28 632.75 695.77 633.19 694.47 634.08C693.17 634.97 692.15 636.16 691.42 637.65C690.68 639.15 690.32 640.84 690.32 642.72C690.32 644.6 690.69 646.26 691.42 647.77C692.15 649.28 693.17 650.48 694.47 651.36C695.77 652.25 697.28 652.69 699 652.69C700.72 652.69 702.23 652.25 703.53 651.36C704.83 650.47 705.86 649.28 706.6 647.77C707.35 646.26 707.72 644.58 707.72 642.72V642.72Z" fill="white"/>
<path d="M728.49 657.26C727.72 657.26 727.02 657.02 726.41 656.53C725.8 656.04 725.5 655.44 725.5 654.72V630.7C725.5 629.98 725.74 629.38 726.23 628.89C726.71 628.4 727.32 628.16 728.04 628.16H740.01C741.45 628.16 742.8 628.54 744.06 629.3C745.32 630.06 746.34 631.11 747.11 632.46C747.88 633.8 748.27 635.35 748.27 637.09C748.27 638.14 748.05 639.17 747.63 640.16C747.2 641.16 746.62 642.06 745.88 642.86C745.15 643.66 744.32 644.29 743.41 644.73L743.45 643.77C744.23 644.19 744.87 644.68 745.38 645.25C745.89 645.82 746.29 646.43 746.58 647.08C746.87 647.73 747.04 648.43 747.1 649.18C747.21 649.87 747.29 650.48 747.33 651.01C747.37 651.54 747.45 651.98 747.58 652.34C747.71 652.7 747.95 652.98 748.31 653.17C748.92 653.53 749.3 654.05 749.45 654.73C749.6 655.41 749.45 656.01 748.97 656.54C748.66 656.9 748.28 657.13 747.81 657.23C747.34 657.33 746.87 657.33 746.4 657.23C745.93 657.13 745.54 657 745.24 656.84C744.77 656.56 744.3 656.15 743.83 655.61C743.36 655.07 742.98 654.34 742.69 653.43C742.4 652.52 742.25 651.34 742.25 649.9C742.25 649.43 742.17 648.99 742 648.59C741.83 648.19 741.6 647.84 741.29 647.55C740.99 647.26 740.6 647.04 740.13 646.88C739.66 646.73 739.1 646.65 738.47 646.65H730.08L730.7 645.69V654.71C730.7 655.43 730.51 656.03 730.12 656.52C729.73 657.01 729.19 657.25 728.5 657.25L728.49 657.26ZM730.11 642.38H739.79C740.29 642.38 740.77 642.15 741.24 641.69C741.71 641.23 742.1 640.61 742.4 639.82C742.7 639.03 742.86 638.16 742.86 637.22C742.86 636 742.53 634.98 741.88 634.17C741.23 633.35 740.53 632.94 739.78 632.94H730.18L730.68 631.61V643.37L730.1 642.37L730.11 642.38Z" fill="white"/>
<path d="M766.85 654.73C766.85 655.45 766.59 656.05 766.06 656.54C765.53 657.03 764.92 657.27 764.23 657.27C763.45 657.27 762.83 657.03 762.36 656.54C761.89 656.05 761.65 655.45 761.65 654.73V630.71C761.65 629.99 761.9 629.39 762.4 628.9C762.9 628.41 763.54 628.17 764.31 628.17C764.97 628.17 765.56 628.41 766.08 628.9C766.6 629.39 766.85 629.99 766.85 630.71V654.73V654.73Z" fill="white"/>
<path d="M802.75 628.18C803.41 628.18 803.95 628.4 804.37 628.85C804.79 629.29 804.99 629.85 804.99 630.51V654.74C804.99 655.46 804.75 656.06 804.26 656.55C803.77 657.04 803.17 657.28 802.45 657.28C802.09 657.28 801.72 657.22 801.35 657.09C800.98 656.96 800.69 656.79 800.5 656.57L784.17 635.84L785.25 635.17V654.95C785.25 655.62 785.04 656.17 784.61 656.61C784.18 657.05 783.62 657.27 782.93 657.27C782.24 657.27 781.73 657.05 781.31 656.61C780.89 656.17 780.69 655.61 780.69 654.95V630.73C780.69 630.01 780.93 629.41 781.42 628.92C781.9 628.43 782.51 628.19 783.23 628.19C783.62 628.19 784.02 628.27 784.43 628.42C784.85 628.57 785.15 628.8 785.34 629.11L801.17 649.31L800.46 649.81V630.53C800.46 629.87 800.67 629.31 801.08 628.87C801.5 628.43 802.05 628.2 802.74 628.2L802.75 628.18Z" fill="white"/>
<path d="M832.54 657.68C830.44 657.68 828.47 657.29 826.64 656.52C824.81 655.75 823.21 654.67 821.82 653.3C820.43 651.93 819.35 650.34 818.56 648.54C817.77 646.74 817.38 644.8 817.38 642.72C817.38 640.64 817.77 638.7 818.56 636.9C819.35 635.1 820.44 633.51 821.82 632.14C823.21 630.77 824.81 629.7 826.64 628.92C828.47 628.15 830.44 627.76 832.54 627.76C833.84 627.76 835.1 627.9 836.32 628.18C837.54 628.46 838.66 628.87 839.69 629.43C840.11 629.65 840.42 629.95 840.63 630.32C840.84 630.69 840.94 631.07 840.94 631.46C840.94 632.13 840.72 632.72 840.27 633.25C839.82 633.78 839.26 634.04 838.57 634.04C838.35 634.04 838.12 634.01 837.88 633.96C837.64 633.9 837.42 633.82 837.19 633.71C836.5 633.41 835.76 633.17 834.99 633C834.22 632.83 833.4 632.75 832.54 632.75C830.74 632.75 829.1 633.2 827.62 634.1C826.14 635 824.96 636.2 824.09 637.72C823.22 639.23 822.78 640.9 822.78 642.73C822.78 644.56 823.22 646.19 824.09 647.72C824.96 649.25 826.14 650.46 827.62 651.36C829.1 652.26 830.74 652.71 832.54 652.71C833.37 652.71 834.28 652.63 835.28 652.46C836.28 652.29 837.09 652.07 837.73 651.79L837.36 653.04V645.93L838.07 646.55H833.46C832.74 646.55 832.14 646.31 831.65 645.84C831.16 645.37 830.92 644.77 830.92 644.05C830.92 643.33 831.16 642.73 831.65 642.26C832.13 641.79 832.74 641.55 833.46 641.55H840.27C840.99 641.55 841.59 641.79 842.06 642.28C842.53 642.77 842.77 643.37 842.77 644.09V652.9C842.77 653.45 842.64 653.91 842.38 654.27C842.12 654.63 841.82 654.92 841.49 655.14C840.22 655.92 838.82 656.53 837.31 656.99C835.8 657.45 834.21 657.67 832.55 657.67L832.54 657.68Z" fill="white"/>
<path d="M333.67 657.68C331.73 657.68 329.99 657.44 328.43 656.95C326.88 656.46 325.4 655.61 323.98 654.4C323.62 654.09 323.34 653.75 323.15 653.36C322.96 652.97 322.86 652.59 322.86 652.2C322.86 651.56 323.09 651 323.55 650.52C324.01 650.04 324.58 649.79 325.27 649.79C325.8 649.79 326.27 649.96 326.68 650.29C327.73 651.15 328.78 651.8 329.82 652.24C330.86 652.68 332.14 652.91 333.66 652.91C334.68 652.91 335.63 652.75 336.49 652.43C337.35 652.11 338.04 651.68 338.57 651.14C339.1 650.6 339.36 649.98 339.36 649.29C339.36 648.46 339.11 647.75 338.61 647.17C338.11 646.59 337.35 646.1 336.32 645.69C335.29 645.28 333.99 644.98 332.41 644.75C330.91 644.53 329.6 644.19 328.46 643.73C327.32 643.27 326.37 642.69 325.61 641.99C324.85 641.29 324.27 640.45 323.89 639.5C323.5 638.54 323.31 637.47 323.31 636.28C323.31 634.48 323.77 632.94 324.7 631.67C325.63 630.4 326.88 629.43 328.46 628.76C330.04 628.09 331.78 627.76 333.7 627.76C335.5 627.76 337.17 628.03 338.71 628.57C340.25 629.11 341.5 629.8 342.47 630.63C343.27 631.27 343.67 632 343.67 632.83C343.67 633.44 343.43 633.99 342.96 634.49C342.49 634.99 341.94 635.24 341.3 635.24C340.88 635.24 340.51 635.12 340.18 634.87C339.74 634.48 339.14 634.12 338.39 633.77C337.64 633.43 336.85 633.13 336.02 632.9C335.19 632.67 334.41 632.55 333.69 632.55C332.5 632.55 331.49 632.7 330.68 633.01C329.87 633.32 329.25 633.73 328.83 634.26C328.41 634.79 328.21 635.4 328.21 636.09C328.21 636.92 328.45 637.61 328.94 638.15C329.42 638.69 330.12 639.12 331.04 639.44C331.95 639.76 333.05 640.04 334.32 640.29C335.98 640.59 337.44 640.95 338.7 641.37C339.96 641.79 341.01 642.32 341.84 642.97C342.67 643.62 343.29 644.44 343.71 645.42C344.13 646.4 344.33 647.6 344.33 649.01C344.33 650.81 343.83 652.36 342.83 653.66C341.83 654.96 340.52 655.96 338.9 656.65C337.28 657.34 335.53 657.69 333.64 657.69L333.67 657.68Z" fill="white"/>
<path d="M369.28 628.05C369.92 628.05 370.49 628.29 371 628.78C371.51 629.27 371.77 629.88 371.77 630.63C371.77 630.88 371.73 631.14 371.67 631.4C371.6 631.66 371.48 631.92 371.32 632.17L361.89 645.68L362.64 642.81V654.74C362.64 655.46 362.4 656.06 361.91 656.55C361.42 657.04 360.86 657.28 360.23 657.28C359.54 657.28 358.95 657.04 358.46 656.55C357.97 656.06 357.73 655.46 357.73 654.74V643.15L358.06 644.48L349.08 632.56C348.8 632.2 348.61 631.85 348.5 631.52C348.39 631.19 348.33 630.88 348.33 630.61C348.33 629.86 348.62 629.25 349.2 628.78C349.78 628.31 350.38 628.07 350.99 628.07C351.76 628.07 352.44 628.46 353.03 629.23L361.01 640.24L359.85 640.07L367.2 629.31C367.78 628.48 368.47 628.06 369.28 628.06V628.05Z" fill="white"/>
<path d="M386.07 657.68C384.13 657.68 382.39 657.44 380.83 656.95C379.28 656.46 377.8 655.61 376.38 654.4C376.02 654.09 375.74 653.75 375.55 653.36C375.36 652.97 375.26 652.59 375.26 652.2C375.26 651.56 375.49 651 375.95 650.52C376.41 650.04 376.98 649.79 377.67 649.79C378.2 649.79 378.67 649.96 379.08 650.29C380.13 651.15 381.18 651.8 382.22 652.24C383.26 652.68 384.54 652.91 386.06 652.91C387.08 652.91 388.03 652.75 388.89 652.43C389.75 652.11 390.44 651.68 390.97 651.14C391.5 650.6 391.76 649.98 391.76 649.29C391.76 648.46 391.51 647.75 391.01 647.17C390.51 646.59 389.75 646.1 388.72 645.69C387.69 645.28 386.39 644.98 384.81 644.75C383.31 644.53 382 644.19 380.86 643.73C379.72 643.27 378.77 642.69 378.01 641.99C377.25 641.29 376.67 640.45 376.29 639.5C375.9 638.54 375.71 637.47 375.71 636.28C375.71 634.48 376.17 632.94 377.1 631.67C378.03 630.4 379.28 629.43 380.86 628.76C382.44 628.09 384.18 627.76 386.1 627.76C387.9 627.76 389.57 628.03 391.11 628.57C392.65 629.11 393.9 629.8 394.87 630.63C395.67 631.27 396.07 632 396.07 632.83C396.07 633.44 395.83 633.99 395.36 634.49C394.89 634.99 394.34 635.24 393.7 635.24C393.28 635.24 392.91 635.12 392.58 634.87C392.14 634.48 391.54 634.12 390.79 633.77C390.04 633.43 389.25 633.13 388.42 632.9C387.59 632.67 386.81 632.55 386.09 632.55C384.9 632.55 383.89 632.7 383.08 633.01C382.27 633.32 381.65 633.73 381.23 634.26C380.81 634.79 380.61 635.4 380.61 636.09C380.61 636.92 380.85 637.61 381.34 638.15C381.82 638.69 382.52 639.12 383.44 639.44C384.35 639.76 385.45 640.04 386.72 640.29C388.38 640.59 389.84 640.95 391.1 641.37C392.36 641.79 393.41 642.32 394.24 642.97C395.07 643.62 395.69 644.44 396.11 645.42C396.53 646.4 396.73 647.6 396.73 649.01C396.73 650.81 396.23 652.36 395.23 653.66C394.23 654.96 392.92 655.96 391.3 656.65C389.68 657.34 387.93 657.69 386.04 657.69L386.07 657.68Z" fill="white"/>
<path d="M404.44 632.96C403.72 632.96 403.12 632.74 402.63 632.3C402.14 631.86 401.9 631.27 401.9 630.55C401.9 629.83 402.14 629.26 402.63 628.83C403.11 628.4 403.72 628.18 404.44 628.18H422.89C423.61 628.18 424.21 628.4 424.7 628.85C425.18 629.29 425.43 629.88 425.43 630.59C425.43 631.3 425.19 631.88 424.7 632.31C424.21 632.74 423.61 632.95 422.89 632.95H404.44V632.96ZM413.62 657.27C412.84 657.27 412.21 657.03 411.71 656.54C411.21 656.05 410.96 655.45 410.96 654.73V630.63H416.36V654.73C416.36 655.45 416.1 656.05 415.59 656.54C415.08 657.03 414.42 657.27 413.62 657.27V657.27Z" fill="white"/>
<path d="M434.56 628.18H448.48C449.2 628.18 449.8 628.41 450.29 628.87C450.77 629.33 451.02 629.92 451.02 630.64C451.02 631.36 450.78 631.89 450.29 632.32C449.8 632.75 449.2 632.96 448.48 632.96H436.85L437.22 632.25V640.35L436.89 640.02H446.61C447.33 640.02 447.93 640.25 448.42 640.71C448.9 641.17 449.15 641.76 449.15 642.48C449.15 643.2 448.91 643.73 448.42 644.16C447.93 644.59 447.33 644.81 446.61 644.81H437.01L437.22 644.48V652.87L436.89 652.5H448.48C449.2 652.5 449.8 652.74 450.29 653.23C450.77 653.71 451.02 654.28 451.02 654.91C451.02 655.6 450.78 656.17 450.29 656.61C449.8 657.05 449.2 657.27 448.48 657.27H434.56C433.84 657.27 433.24 657.03 432.75 656.54C432.26 656.05 432.02 655.45 432.02 654.73V630.71C432.02 629.99 432.26 629.39 432.75 628.9C433.23 628.41 433.84 628.17 434.56 628.17V628.18Z" fill="white"/>
<path d="M460.66 628.14C461.05 628.14 461.46 628.24 461.89 628.45C462.32 628.66 462.64 628.93 462.87 629.26L472.97 644.8L470.89 644.72L481.24 629.26C481.77 628.51 482.45 628.14 483.28 628.14C483.94 628.14 484.54 628.38 485.07 628.85C485.6 629.32 485.86 629.93 485.86 630.68V654.74C485.86 655.46 485.62 656.06 485.15 656.55C484.68 657.04 484.06 657.28 483.28 657.28C482.5 657.28 481.87 657.04 481.39 656.55C480.9 656.06 480.66 655.46 480.66 654.74V635.17L482.28 635.54L473.8 648.46C473.55 648.77 473.24 649.03 472.87 649.25C472.5 649.47 472.11 649.57 471.73 649.54C471.37 649.57 471 649.47 470.63 649.25C470.26 649.03 469.94 648.77 469.69 648.46L461.75 635.91L462.83 633.71V654.74C462.83 655.46 462.61 656.06 462.17 656.55C461.73 657.04 461.14 657.28 460.42 657.28C459.7 657.28 459.16 657.04 458.72 656.55C458.28 656.06 458.06 655.46 458.06 654.74V630.68C458.06 629.99 458.32 629.39 458.83 628.89C459.34 628.39 459.96 628.14 460.68 628.14H460.66Z" fill="white"/>
<path d="M541.74 286.55C536.65 280.75 527.88 280.04 522.08 285.14C495.35 308.34 461.12 321.21 425.76 321.21C386.86 321.21 350.09 305.93 322.23 278.07C294.37 250.21 279.09 213.43 279.09 174.54C279.09 135.65 294.37 98.87 322.23 71.01C350.09 43.15 386.87 27.87 425.76 27.87C460.98 27.87 495.06 40.6 521.8 63.65C527.6 68.6 536.37 68.03 541.46 62.24C546.41 56.44 545.84 47.67 540.05 42.58C508.22 15.13 467.77 0 425.76 0C379.51 0 335.66 18.25 302.57 51.34C269.47 84.44 251.23 128.14 251.23 174.53C251.23 215.24 265.28 253.88 291.09 285.1L242.18 329.12C236.52 334.35 236.1 343.12 241.19 348.78C243.88 351.89 247.7 353.45 251.51 353.45C254.76 353.45 258.02 352.32 260.84 349.77L310.44 305.13C342.45 333.52 382.95 349.07 425.75 349.07C468.55 349.07 508.63 333.79 540.31 306.21C546.11 301.12 546.82 292.35 541.72 286.55H541.74Z" fill="white"/>
<path d="M424.02 206.12C421.31 208.6 417.89 209.83 414.47 209.83C410.84 209.83 407.22 208.44 404.47 205.69L360.76 161.98C355.24 156.46 355.24 147.5 360.76 141.98C366.28 136.46 375.24 136.46 380.76 141.98L414.9 176.12L509.54 89.52C487.99 68.29 458.42 55.17 425.77 55.17C359.84 55.17 306.4 108.62 306.4 174.54C306.4 240.46 359.85 293.91 425.77 293.91C491.69 293.91 545.14 240.46 545.14 174.54C545.14 151.46 538.57 129.93 527.23 111.66L424 206.12H424.02Z" fill="white"/>
<path d="M393.93 801.32C372.82 805.31 359.07 822 361.68 837.65C364.26 853.31 382.55 863.99 403.66 860.02C424.78 856.07 438.52 839.35 435.92 823.72C433.34 808.08 415.05 797.37 393.94 801.32M391.6 798.35C413.91 794.15 435.53 805.23 438.73 824.57C441.92 843.9 425.18 862.16 402.86 866.36C380.54 870.55 358.93 859.49 355.73 840.15C352.54 820.8 369.29 802.55 391.6 798.36" fill="white"/>
<path d="M475.3 764.93C443.37 771.99 421.92 801.96 425.97 830.78C430.03 859.61 458.37 878.58 490.28 871.52C522.22 864.47 543.65 834.53 539.63 805.67C535.55 776.87 507.22 757.89 475.3 764.93ZM476.17 760.8C509.19 753.49 540.55 772.85 545.16 805.63C549.78 838.42 525.59 870.02 492.56 877.32C459.54 884.61 428.19 865.25 423.57 832.48C418.95 799.71 443.13 768.1 476.16 760.8" fill="white"/>
<path d="M605.64 827.62H607.14V823.2H608.77L611.5 827.62H613.02L610.18 823.08C611.7 822.92 612.86 822.02 612.86 820.14C612.86 818.06 611.67 817.07 609.48 817.07H605.63V827.62H605.64ZM607.14 821.74V818.53H609.21C610.25 818.53 611.35 818.69 611.35 820.08C611.35 821.65 610.13 821.73 608.77 821.73H607.14V821.74ZM600.53 822.3C600.53 827.28 604.34 831.33 609.02 831.33C613.7 831.33 617.5 827.28 617.5 822.3C617.5 817.32 613.7 813.27 609.02 813.27C604.34 813.27 600.53 817.3 600.53 822.3ZM609.02 829.86C605.16 829.86 602.04 826.48 602.04 822.3C602.04 818.12 605.16 814.72 609.02 814.72C612.88 814.72 615.99 818.11 615.99 822.3C615.99 826.49 612.88 829.86 609.02 829.86Z" fill="white"/>
<path d="M300.42 813.15H290.04V863.23H300.42V813.15Z" fill="white"/>
<path d="M311.41 821.87H335.62L309.6 855.48V863.24H351.03V854.51H322.72L349.67 820.89V813.15H311.41V821.87Z" fill="white"/>
<path d="M568.71 811.8H569.08C581.57 811.97 589.41 820.67 589.41 831.81V863.24H579.03V831.76C579.03 826.48 574.03 822.82 568.9 822.82C563.77 822.82 558.76 826.48 558.76 831.76V863.24H548.38V831.81C548.38 820.67 556.23 811.97 568.72 811.8" fill="white"/>
<path d="M279.75 863.22V813.19H270.16V817.91C265.79 813.96 260.14 811.55 253.94 811.55C240.13 811.55 228.94 823.46 228.94 838.15C228.94 852.84 240.14 864.76 253.94 864.76C260.13 864.76 265.78 862.35 270.16 858.39V863.16L270.2 863.23H279.75V863.22ZM270.16 838.75C269.85 848.04 262.74 855.47 253.94 855.47C245.14 855.47 237.67 847.71 237.67 838.15C237.67 828.59 244.95 820.83 253.94 820.83C262.93 820.83 269.85 828.26 270.16 837.53V838.75Z" fill="white"/>
</svg>
