<svg width="1840" height="1124" viewBox="0 0 1840 1124" fill="none" xmlns="http://www.w3.org/2000/svg">
    <g clip-path="url(#clip0_19_442)">
        <path d="M1840 0H0V1124H1840V0Z" fill="black"/>
        <path d="M-1 661.5L682.5 688L658 1125H-0.999995L-1 661.5Z" fill="url(#paint0_linear_19_442)"/>
        <path d="M1121 684H686L719.5 -193L1387 85.5L1121 684Z" fill="url(#paint1_linear_19_442)" stroke="black"/>
        <path d="M1390 87L1124.5 683.5L1871.5 692L1844.3 152.154L1390 87Z" fill="url(#paint2_radial_19_442)"/>
        <path d="M1119 688H686L661.5 1124.5H922.5L1119 688Z" fill="url(#paint3_linear_19_442)" stroke="black"/>
        <path d="M1388 83L1165.5 -9L1428.5 -2.5L1388 83Z" fill="url(#paint4_linear_19_442)" stroke="black"/>
        <path d="M1391 83.5L1431 -1H1841.5L1847.5 148L1391 83.5Z" fill="url(#paint5_radial_19_442)"/>
        <path d="M928.5 1123.5L1122 688L1852.5 696V1123.5H928.5Z" fill="url(#paint6_radial_19_442)"/>
        <path d="M-65.4226 -133L712.564 -102.73L682.5 682.5L9.91821e-05 657.5L-65.4226 -133Z" fill="url(#paint7_linear_19_442)"/>
    </g>
    <defs>
        <linearGradient id="paint0_linear_19_442" x1="59.2402" y1="786.972" x2="659.534" y2="831.758" gradientUnits="userSpaceOnUse">
            <stop stop-color="#617A81"/>
            <stop offset="1" stop-color="#43626F"/>
        </linearGradient>
        <linearGradient id="paint1_linear_19_442" x1="1273.5" y1="346.5" x2="692.499" y2="305" gradientUnits="userSpaceOnUse">
            <stop stop-color="#4E7B94"/>
            <stop offset="1" stop-color="#4F6A75"/>
        </linearGradient>
        <radialGradient id="paint2_radial_19_442" cx="0" cy="0" r="1" gradientUnits="userSpaceOnUse" gradientTransform="translate(1857 410) rotate(-178.027) scale(609.862 1669.35)">
            <stop stop-color="#AFC3C4"/>
            <stop offset="1" stop-color="#E7ECE8"/>
        </radialGradient>
        <linearGradient id="paint3_linear_19_442" x1="1044.93" y1="956.52" x2="667.121" y2="921.134" gradientUnits="userSpaceOnUse">
            <stop stop-color="#4E7B94"/>
            <stop offset="1" stop-color="#4F6A75"/>
        </linearGradient>
        <linearGradient id="paint4_linear_19_442" x1="1389.68" y1="48.6888" x2="1210.12" y2="1.35019" gradientUnits="userSpaceOnUse">
            <stop stop-color="#4E7B94"/>
            <stop offset="1" stop-color="#3E657A"/>
        </linearGradient>
        <radialGradient id="paint5_radial_19_442" cx="0" cy="0" r="1" gradientUnits="userSpaceOnUse" gradientTransform="translate(1819.6 24.3116) rotate(164.159) scale(368.982 546.651)">
            <stop stop-color="#AFC3C4"/>
            <stop offset="1" stop-color="#E7ECE8"/>
        </radialGradient>
        <radialGradient id="paint6_radial_19_442" cx="0" cy="0" r="1" gradientUnits="userSpaceOnUse" gradientTransform="translate(1853 906) rotate(180) scale(813.5 1737.83)">
            <stop stop-color="#AFC3C4"/>
            <stop offset="1" stop-color="#E7ECE8"/>
        </radialGradient>
        <linearGradient id="paint7_linear_19_442" x1="0.500078" y1="79" x2="685" y2="122" gradientUnits="userSpaceOnUse">
            <stop stop-color="#617A81"/>
            <stop offset="1" stop-color="#43626F"/>
        </linearGradient>
        <clipPath id="clip0_19_442">
            <rect width="1840" height="1124" fill="white"/>
        </clipPath>
    </defs>
</svg>