<svg width="309" height="354" viewBox="0 0 309 354" fill="none" xmlns="http://www.w3.org/2000/svg">
<path d="M304.74 286.55C299.65 280.75 290.88 280.04 285.08 285.14C258.35 308.34 224.12 321.21 188.76 321.21C149.86 321.21 113.09 305.93 85.2301 278.07C57.3701 250.21 42.09 213.43 42.09 174.54C42.09 135.65 57.3701 98.87 85.2301 71.01C113.09 43.15 149.87 27.87 188.76 27.87C223.98 27.87 258.06 40.6 284.8 63.65C290.6 68.6 299.37 68.03 304.46 62.24C309.41 56.44 308.84 47.67 303.05 42.58C271.22 15.13 230.77 0 188.76 0C142.51 0 98.6601 18.25 65.5701 51.34C32.4701 84.44 14.2301 128.14 14.2301 174.53C14.2301 215.24 28.2801 253.88 54.09 285.1L5.18005 329.12C-0.479952 334.35 -0.899943 343.12 4.19006 348.78C6.88006 351.89 10.7001 353.45 14.51 353.45C17.76 353.45 21.0201 352.32 23.8401 349.77L73.4401 305.13C105.45 333.52 145.95 349.07 188.75 349.07C231.55 349.07 271.63 333.79 303.31 306.21C309.11 301.12 309.82 292.35 304.72 286.55H304.74Z" fill="url(#paint0_linear_3_196)"/>
<path d="M187.02 206.12C184.31 208.6 180.89 209.83 177.47 209.83C173.84 209.83 170.22 208.44 167.47 205.69L123.76 161.98C118.24 156.46 118.24 147.5 123.76 141.98C129.28 136.46 138.24 136.46 143.76 141.98L177.9 176.12L272.54 89.52C250.99 68.29 221.42 55.17 188.77 55.17C122.84 55.17 69.4 108.62 69.4 174.54C69.4 240.46 122.85 293.91 188.77 293.91C254.69 293.91 308.14 240.46 308.14 174.54C308.14 151.46 301.57 129.93 290.23 111.66L187 206.12H187.02Z" fill="url(#paint1_linear_3_196)"/>
<defs>
<linearGradient id="paint0_linear_3_196" x1="154.39" y1="0" x2="154.39" y2="353.45" gradientUnits="userSpaceOnUse">
<stop stop-color="#0C2C84"/>
<stop offset="1" stop-color="#197BDA"/>
</linearGradient>
<linearGradient id="paint1_linear_3_196" x1="188.78" y1="55.16" x2="188.78" y2="293.91" gradientUnits="userSpaceOnUse">
<stop stop-color="#0C2C84"/>
<stop offset="1" stop-color="#197BDA"/>
</linearGradient>
</defs>
</svg>
